<svg width="32" height="32" viewBox="0 0 32 32" fill="none" xmlns="http://www.w3.org/2000/svg">
<path d="M12.25 18C12.25 17.5858 12.5858 17.25 13 17.25H19C19.4142 17.25 19.75 17.5858 19.75 18C19.75 18.4142 19.4142 18.75 19 18.75H13C12.5858 18.75 12.25 18.4142 12.25 18Z" fill="#DD4141"/>
<path fill-rule="evenodd" clip-rule="evenodd" d="M13 5.25C13.4142 5.25 13.75 5.58579 13.75 6V7.26061C14.4192 7.25 15.1628 7.25 15.9889 7.25H16.0111C16.8372 7.25 17.5808 7.25 18.25 7.26061V6C18.25 5.58579 18.5858 5.25 19 5.25C19.4142 5.25 19.75 5.58579 19.75 6V7.31358C21.2619 7.40837 22.4234 7.65335 23.3798 8.34815C23.8679 8.70281 24.2972 9.13209 24.6518 9.62023C25.4537 10.7239 25.6564 12.1009 25.7206 13.9743C25.75 14.8315 25.75 15.8289 25.75 16.989V17.011C25.75 18.1711 25.75 19.1685 25.7206 20.0257C25.6564 21.8991 25.4537 23.2761 24.6518 24.3798C24.2972 24.8679 23.8679 25.2972 23.3798 25.6518C22.2761 26.4537 20.8991 26.6564 19.0257 26.7206C18.1684 26.75 17.171 26.75 16.0108 26.75H15.9547C14.1182 26.75 12.6786 26.75 11.5365 26.6263C10.3709 26.5 9.42656 26.2377 8.62024 25.6518C8.13209 25.2972 7.70281 24.8679 7.34815 24.3798C6.76232 23.5734 6.50001 22.6291 6.37373 21.4635C6.24999 20.3214 6.24999 18.8818 6.25 17.0452L6.25 16.9889C6.25 15.8289 6.25 14.8315 6.27937 13.9743C6.34356 12.1009 6.5463 10.7239 7.34815 9.62023C7.70281 9.13209 8.13209 8.70281 8.62024 8.34815C9.57655 7.65335 10.7381 7.40837 12.25 7.31358V6C12.25 5.58579 12.5858 5.25 13 5.25ZM12.25 8.81725C10.8879 8.91092 10.1018 9.12585 9.50191 9.56168C9.14111 9.82382 8.82382 10.1411 8.56168 10.5019C8.12585 11.1018 7.91092 11.8879 7.81725 13.25H24.1827C24.0891 11.8879 23.8741 11.1018 23.4383 10.5019C23.1762 10.1411 22.8589 9.82382 22.4981 9.56168C21.8982 9.12585 21.1121 8.91092 19.75 8.81725V9C19.75 9.41421 19.4142 9.75 19 9.75C18.5858 9.75 18.25 9.41421 18.25 9V8.76079C17.5904 8.75005 16.8476 8.75 16 8.75C15.1524 8.75 14.4096 8.75005 13.75 8.76079V9C13.75 9.41421 13.4142 9.75 13 9.75C12.5858 9.75 12.25 9.41421 12.25 9V8.81725ZM24.2392 14.75H7.76079C7.75005 15.4096 7.75 16.1524 7.75 17C7.75 18.8916 7.75103 20.25 7.865 21.302C7.97745 22.3399 8.19259 22.9901 8.56168 23.4981C8.82382 23.8589 9.14111 24.1762 9.50191 24.4383C10.0099 24.8074 10.6601 25.0225 11.698 25.135C12.75 25.249 14.1084 25.25 16 25.25C16.8483 25.25 17.5918 25.2499 18.2518 25.2392C18.2562 24.7645 18.271 24.4151 18.3208 24.1005C18.7105 21.6401 20.6401 19.7105 23.1005 19.3208C23.4151 19.271 23.7645 19.2562 24.2392 19.2518C24.25 18.5918 24.25 17.8483 24.25 17C24.25 16.1524 24.25 15.4096 24.2392 14.75ZM24.1826 20.7528C23.7776 20.7575 23.5402 20.7699 23.3352 20.8023C21.5166 21.0904 20.0904 22.5166 19.8023 24.3352C19.7699 24.5402 19.7575 24.7776 19.7528 25.1826C21.1131 25.0888 21.8986 24.8738 22.4981 24.4383C22.8589 24.1762 23.1762 23.8589 23.4383 23.4981C23.8738 22.8986 24.0888 22.1131 24.1826 20.7528Z" fill="#DD4141"/>
</svg>
