<svg width="16" height="16" viewBox="0 0 16 16" fill="none" xmlns="http://www.w3.org/2000/svg">
<path fill-rule="evenodd" clip-rule="evenodd" d="M11.6423 1.58249C10.8808 1.49999 9.92111 1.49999 8.69675 1.5H7.30308C6.07873 1.49999 5.11899 1.49999 4.35757 1.58249C3.58054 1.66667 2.95096 1.84155 2.41341 2.2321C2.08798 2.46854 1.80179 2.75473 1.56535 3.08016C1.45757 3.22852 1.36526 3.38521 1.2865 3.55198C1.04531 4.06269 0.937726 4.65491 0.885295 5.36112C0.833249 6.06215 0.83325 6.92149 0.833252 7.98104V8.03017C0.833247 9.25452 0.833242 10.2143 0.915737 10.9757C0.999923 11.7527 1.1748 12.3823 1.56535 12.9198C1.80179 13.2453 2.08798 13.5315 2.41341 13.7679C2.95096 14.1585 3.58054 14.3333 4.35757 14.4175C5.11898 14.5 6.07869 14.5 7.30302 14.5H8.69677C9.92109 14.5 10.8809 14.5 11.6423 14.4175C12.4193 14.3333 13.0489 14.1585 13.5864 13.7679C13.9119 13.5315 14.198 13.2453 14.4345 12.9198C14.825 12.3823 14.9999 11.7527 15.0841 10.9757C15.1666 10.2143 15.1666 9.25456 15.1666 8.03023V7.9806C15.1666 6.91382 15.1666 6.0499 15.1134 5.34603C15.0598 4.63671 14.9498 4.04252 14.703 3.53031C14.6265 3.37156 14.5376 3.22203 14.4345 3.08016C14.198 2.75473 13.9119 2.46854 13.5864 2.2321C13.0489 1.84155 12.4193 1.66667 11.6423 1.58249ZM3.00119 3.04112C3.33986 2.79506 3.77334 2.65163 4.46528 2.57667C5.16658 2.50069 6.0722 2.5 7.33325 2.5H8.66658C9.92763 2.5 10.8333 2.50069 11.5346 2.57667C12.2265 2.65163 12.66 2.79506 12.9986 3.04112C13.2391 3.21579 13.4505 3.4272 13.6252 3.6676L12.3604 4.9324C11.2393 6.05351 10.4333 6.85802 9.73808 7.38844C9.05442 7.91007 8.53699 8.11929 7.99992 8.11929C7.46284 8.11929 6.94542 7.91007 6.26175 7.38844C5.56655 6.85802 4.76053 6.05351 3.63943 4.9324L2.37462 3.6676C2.54933 3.4272 2.76077 3.21579 3.00119 3.04112ZM14.0248 4.68225C14.0651 4.89574 14.0949 5.13927 14.1163 5.42136C14.1663 6.08329 14.1666 6.90988 14.1666 8C14.1666 9.26105 14.1659 10.1667 14.0899 10.868C14.015 11.5599 13.8715 11.9934 13.6255 12.3321C13.4507 12.5726 13.2392 12.7841 12.9986 12.9589C12.66 13.2049 12.2265 13.3484 11.5346 13.4233C10.8333 13.4993 9.92763 13.5 8.66658 13.5H7.33325C6.0722 13.5 5.16658 13.4993 4.46528 13.4233C3.77334 13.3484 3.33986 13.2049 3.00119 12.9589C2.76066 12.7841 2.54913 12.5726 2.37437 12.3321C2.12831 11.9934 1.98489 11.5599 1.90992 10.868C1.83394 10.1667 1.83325 9.26105 1.83325 8C1.83325 6.91763 1.83357 6.09496 1.88255 5.43516C1.90393 5.14723 1.93413 4.89924 1.97506 4.68225L2.95937 5.66655C4.04755 6.75475 4.90033 7.60754 5.65517 8.18347C6.42779 8.77296 7.15628 9.11929 7.99992 9.11929C8.84355 9.11929 9.57204 8.77296 10.3447 8.18347C11.0995 7.60755 11.9523 6.75476 13.0405 5.66657L14.0248 4.68225Z" fill="#6F95C0"/>
</svg>
