<svg width="96" height="96" viewBox="0 0 96 96" fill="none" xmlns="http://www.w3.org/2000/svg">
<path d="M33.8078 69.798L33.3102 70.9447L33.8078 69.798ZM27.3134 62.9944L26.151 63.454L27.3134 62.9944ZM68.6866 62.9944L69.849 63.454L68.6866 62.9944ZM62.1922 69.798L62.6898 70.9447L62.1922 69.798ZM26.4 45.555L27.6451 45.6656L27.7063 44.9771L27.1556 44.5592L26.4 45.555ZM66 34.7549V33.5049V34.7549ZM49.8426 32.0888L50.7265 32.9726L49.8426 32.0888ZM54.9338 26.9976L55.8177 27.8815L54.9338 26.9976ZM63.4191 26.9976L62.5352 27.8815L63.4191 26.9976ZM64.0404 34.7549L64.0405 36.0049L64.6784 36.0049L65.0527 35.4883L64.0404 34.7549ZM46.5338 32.0888L45.65 32.9727L46.5338 32.0888ZM41.4427 26.9976L40.5588 27.8815V27.8815L41.4427 26.9976ZM32.9574 26.9976L33.8413 27.8815V27.8815L32.9574 26.9976ZM48 68.3549H49.25H48ZM26.3221 45.4958L25.5552 46.4829H25.5552L26.3221 45.4958ZM69.4449 45.668L68.7264 44.6452L69.4449 45.668ZM44.4 69.5049C41.5864 69.5049 39.5418 69.5042 37.9233 69.3885C36.3171 69.2737 35.2248 69.0503 34.3054 68.6513L33.3102 70.9447C34.5961 71.5027 36.0042 71.7577 37.745 71.8821C39.4734 72.0057 41.6223 72.0049 44.4 72.0049V69.5049ZM25.1501 51.8978C25.1501 54.8103 25.1494 57.0544 25.2669 58.8576C25.3849 60.6709 25.6262 62.1268 26.151 63.454L28.4759 62.5348C28.0872 61.5518 27.8718 60.3881 27.7616 58.6951C27.6507 56.992 27.6501 54.843 27.6501 51.8978H25.1501ZM34.3054 68.6513C31.6801 67.5121 29.5765 65.3186 28.4759 62.5348L26.151 63.454C27.4862 66.8309 30.0548 69.532 33.3102 70.9447L34.3054 68.6513ZM68.35 51.8978C68.35 54.8429 68.3494 56.992 68.2385 58.6951C68.1282 60.3881 67.9128 61.5518 67.5241 62.5348L69.849 63.454C70.3738 62.1268 70.6151 60.6709 70.7332 58.8576C70.8506 57.0543 70.85 54.8102 70.85 51.8978H68.35ZM51.6 72.0049C54.3777 72.0049 56.5266 72.0057 58.255 71.8821C59.9958 71.7577 61.4039 71.5027 62.6898 70.9447L61.6946 68.6513C60.7752 69.0503 59.6829 69.2737 58.0767 69.3885C56.4582 69.5042 54.4136 69.5049 51.6 69.5049V72.0049ZM67.5241 62.5348C66.4235 65.3186 64.3199 67.5121 61.6946 68.6513L62.6898 70.9447C65.9452 69.532 68.5138 66.8309 69.849 63.454L67.5241 62.5348ZM27.6501 51.8978C27.6501 48.4307 27.4859 47.4577 27.6451 45.6656L25.1549 45.4444C24.9842 47.3656 25.1501 48.743 25.1501 51.8978H27.6501ZM66 36.0049C68.6234 36.0049 70.75 38.1316 70.75 40.7549H73.25C73.25 36.7509 70.0041 33.5049 66 33.5049V36.0049ZM30 33.5049C25.9959 33.5049 22.75 36.7509 22.75 40.7549H25.25C25.25 38.1316 27.3766 36.0049 30 36.0049V33.5049ZM50.7265 32.9726L55.8177 27.8815L54.0499 26.1137L48.9588 31.2049L50.7265 32.9726ZM55.8177 27.8815C57.6727 26.0265 60.6802 26.0265 62.5352 27.8815L64.303 26.1137C61.4717 23.2824 56.8812 23.2824 54.0499 26.1137L55.8177 27.8815ZM48.9588 31.2049C48.2019 31.9618 47.1553 33.0942 46.7936 34.4277L49.2064 35.0822C49.3745 34.4625 49.9498 33.7494 50.7265 32.9726L48.9588 31.2049ZM62.5352 27.8815C64.2076 29.5539 64.3728 32.1654 63.0281 34.0216L65.0527 35.4883C67.1067 32.6531 66.8577 28.6684 64.303 26.1137L62.5352 27.8815ZM47.4177 31.2049L42.3266 26.1137L40.5588 27.8815L45.65 32.9727L47.4177 31.2049ZM42.3266 26.1137C39.4953 23.2824 34.9048 23.2824 32.0735 26.1137L33.8413 27.8815C35.6963 26.0265 38.7038 26.0265 40.5588 27.8815L42.3266 26.1137ZM45.65 32.9727C46.2194 33.5421 46.5673 34.2481 46.7936 35.0822L49.2064 34.4277C48.9028 33.3086 48.3819 32.1691 47.4177 31.2049L45.65 32.9727ZM32.0735 26.1137C29.5188 28.6685 29.2698 32.6531 31.3238 35.4883L33.3484 34.0216C32.0037 32.1654 32.1689 29.5539 33.8413 27.8815L32.0735 26.1137ZM46.75 34.755L46.75 68.3549H49.25L49.25 34.755H46.75ZM32.3361 36.0049L48 36.005L48 33.505L32.3361 33.5049L32.3361 36.0049ZM30 45.5049C28.9015 45.5049 27.8932 45.1336 27.089 44.5087L25.5552 46.4829C26.7825 47.4365 28.3266 48.0049 30 48.0049V45.5049ZM27.089 44.5087C25.9677 43.6376 25.25 42.2804 25.25 40.7549H22.75C22.75 43.085 23.8506 45.1586 25.5552 46.4829L27.089 44.5087ZM27.1556 44.5592L27.0777 44.5001L25.5664 46.4916L25.6444 46.5507L27.1556 44.5592ZM51.6 69.5049H48V72.0049H51.6V69.5049ZM48 69.5049H44.4V72.0049H48V69.5049ZM46.75 68.3549L46.75 70.7549L49.25 70.7549L49.25 68.3549L46.75 68.3549ZM66 45.5049H48V48.0049H66V45.5049ZM48 45.5049H30V48.0049H48V45.5049ZM70.75 40.7549C70.75 42.3624 69.9527 43.7837 68.7264 44.6452L70.1635 46.6909C72.0275 45.3814 73.25 43.211 73.25 40.7549H70.75ZM68.7264 44.6452C67.9551 45.187 67.0165 45.5049 66 45.5049V48.0049C67.5474 48.0049 68.985 47.5188 70.1635 46.6909L68.7264 44.6452ZM70.85 51.8978C70.85 48.6653 70.8508 47.4161 70.6903 45.5603L68.1996 45.7757C68.3492 47.505 68.35 48.6438 68.35 51.8978H70.85ZM48 36.005L63.4191 36.0049L63.4191 33.5049L48 33.505L48 36.005ZM63.4192 36.0049L64.0405 36.0049L64.0403 33.5049L63.419 33.5049L63.4192 36.0049ZM63.4191 36.0049L66 36.0049L66 33.5049L63.4191 33.5049L63.4191 36.0049ZM32.3361 33.5049H30V36.0049H32.3361V33.5049ZM30 36.0049L39 36.005L39 33.505L30 33.5049L30 36.0049ZM39 36.005L48 36.005L48 33.505L39 33.505L39 36.005ZM32.3361 36.0049L39 36.005L39 33.505L32.3361 33.5049L32.3361 36.0049ZM48 36.005L64.0404 36.0049L64.0404 33.5049L48 33.505L48 36.005Z" fill="#DD4141"/>
</svg>
