<svg width="32" height="32" viewBox="0 0 32 32" fill="none" xmlns="http://www.w3.org/2000/svg">
<path fill-rule="evenodd" clip-rule="evenodd" d="M13 7.5C11.7865 7.5 10.5722 7.88338 9.55 8.65L7.35 10.3C6.65753 10.8193 6.25 11.6344 6.25 12.5V21.129C6.25 23.342 8.77641 24.6052 10.5468 23.2774C11.2737 22.7322 12.1364 22.4597 13 22.4597C13.8636 22.4597 14.7263 22.7322 15.4532 23.2774L15.55 23.35C16.5722 24.1166 17.7865 24.5 19 24.5C20.2135 24.5 21.4278 24.1166 22.45 23.35L24.65 21.7C25.3425 21.1806 25.75 20.3656 25.75 19.5V10.871C25.75 8.65801 23.2236 7.3948 21.4532 8.72258C20.7263 9.26779 19.8636 9.54032 19 9.54032C18.1364 9.54032 17.2737 9.26779 16.5468 8.72258L16.45 8.65C15.4278 7.88338 14.2135 7.5 13 7.5ZM10.45 9.85C10.9943 9.44181 11.6117 9.18066 12.25 9.0665V21.0101C11.3275 21.1348 10.4292 21.4906 9.64677 22.0774C8.86526 22.6636 7.75 22.1059 7.75 21.129V12.5C7.75 12.1066 7.93524 11.7361 8.25 11.5L10.45 9.85ZM16.3532 22.0774C15.5708 21.4906 14.6725 21.1348 13.75 21.0101V9.0665C14.3883 9.18066 15.0057 9.44181 15.55 9.85L15.6468 9.92258C16.4292 10.5094 17.3275 10.8652 18.25 10.9899V22.9335C17.6117 22.8193 16.9943 22.5582 16.45 22.15L16.3532 22.0774ZM21.55 22.15C21.0057 22.5582 20.3883 22.8193 19.75 22.9335V10.9899C20.6725 10.8652 21.5708 10.5094 22.3532 9.92258C23.1347 9.33645 24.25 9.89408 24.25 10.871V19.5C24.25 19.8934 24.0648 20.2639 23.75 20.5L21.55 22.15Z" fill="#DD4141"/>
</svg>
