<svg width="16" height="16" viewBox="0 0 16 16" fill="none" xmlns="http://www.w3.org/2000/svg">
<path d="M8.65996 1.8335C9.23385 1.8335 9.48787 1.834 9.69734 1.85275C12.0262 2.06126 13.8719 3.90694 14.0804 6.23581C14.0992 6.44528 14.0997 6.69928 14.0997 7.27319V7.93316C14.0997 8.2093 14.3235 8.43316 14.5997 8.43316C14.8758 8.43316 15.0997 8.2093 15.0997 7.93316V7.23957C15.0997 6.7083 15.0997 6.40639 15.0764 6.14664C14.8248 3.33593 12.5972 1.10839 9.78651 0.856738C9.52675 0.833481 9.22484 0.833486 8.69352 0.833497H7.99999C7.72385 0.833497 7.49999 1.05736 7.49999 1.3335C7.49999 1.60964 7.72385 1.8335 7.99999 1.8335L8.65996 1.8335Z" fill="#6F95C0"/>
<path fill-rule="evenodd" clip-rule="evenodd" d="M4.74114 2.6837C4.03975 2.03921 2.96165 2.03921 2.26025 2.6837C2.23153 2.71009 2.20087 2.74076 2.16105 2.78058L1.56271 3.37892C0.960639 3.98099 0.707893 4.84894 0.892601 5.68013C1.94058 10.396 5.6236 14.0791 10.3395 15.127C11.1707 15.3117 12.0386 15.059 12.6407 14.4569L13.239 13.8587C13.2789 13.8188 13.3095 13.7881 13.3359 13.7594C13.9804 13.058 13.9804 11.9799 13.3359 11.2785C13.3095 11.2498 13.2789 11.2191 13.239 11.1792L12.2595 10.1997C11.5794 9.51966 10.5524 9.32516 9.67076 9.70947C9.16602 9.92948 8.57806 9.81813 8.18872 9.42879L6.59085 7.83092C6.20151 7.44158 6.09016 6.85362 6.31017 6.34888C6.69448 5.46724 6.49998 4.44022 5.81991 3.76015L4.84036 2.7806C4.80053 2.74077 4.76987 2.71009 4.74114 2.6837ZM2.93686 3.42004C3.25567 3.12709 3.74572 3.12709 4.06453 3.42004C4.07554 3.43015 4.08996 3.44442 4.14068 3.49513L5.11281 4.46726C5.50214 4.8566 5.61349 5.44456 5.39348 5.9493C5.00917 6.83094 5.20367 7.85796 5.88374 8.53803L7.48161 10.1359C8.16168 10.816 9.1887 11.0105 10.0703 10.6262C10.5751 10.4061 11.163 10.5175 11.5524 10.9068L12.5245 11.879C12.5752 11.9297 12.5895 11.9441 12.5996 11.9551C12.8925 12.2739 12.8925 12.764 12.5996 13.0828C12.5895 13.0938 12.5752 13.1082 12.5245 13.1589L11.9336 13.7498C11.5733 14.1101 11.0539 14.2614 10.5564 14.1509C6.21956 13.1871 2.83254 9.80008 1.86879 5.4632C1.75825 4.96577 1.90951 4.44634 2.26982 4.08603L2.86072 3.49513C2.91143 3.44442 2.92585 3.43015 2.93686 3.42004Z" fill="#6F95C0"/>
<path d="M8.47132 3.19052C8.19518 3.19052 7.97132 3.41438 7.97132 3.69052C7.97132 3.96666 8.19518 4.19052 8.47132 4.19052H8.84845C8.85572 4.19052 8.86245 4.19052 8.8687 4.19052C8.91249 4.19053 8.93284 4.19057 8.9498 4.19081C10.4829 4.21277 11.7203 5.45023 11.7423 6.98328C11.7425 7.00266 11.7426 7.02647 11.7426 7.08463V7.46175C11.7426 7.7379 11.9664 7.96175 12.2426 7.96175C12.5187 7.96175 12.7426 7.7379 12.7426 7.46175V7.07979C12.7426 7.07332 12.7426 7.06716 12.7426 7.06128C12.7426 7.02016 12.7425 6.99302 12.7422 6.96896C12.7125 4.89483 11.0382 3.22062 8.96412 3.19091C8.93661 3.19052 8.90508 3.19052 8.85326 3.19052H8.47132Z" fill="#6F95C0"/>
</svg>
