<svg width="96" height="96" viewBox="0 0 96 96" fill="none" xmlns="http://www.w3.org/2000/svg">
<path d="M29.7489 70.2317L30.4022 69.166L29.7489 70.2317ZM25.789 66.27L26.8549 65.6171L25.789 66.27ZM70.2325 66.27L69.1665 65.6171L70.2325 66.27ZM66.2725 70.2317L65.6192 69.166L66.2725 70.2317ZM66.2725 32.9683L65.6192 34.034L66.2725 32.9683ZM70.2325 36.93L69.1665 37.5829L70.2325 36.93ZM29.7489 32.9683L30.4022 34.034L29.7489 32.9683ZM25.789 36.93L26.8549 37.5829L25.789 36.93ZM63.548 25.3115L64.4503 24.4464V24.4464L63.548 25.3115ZM28.4456 26.1379L29.2006 27.1342V27.1342L28.4456 26.1379ZM26.0712 28.6144L27.0969 29.3289L26.0712 28.6144ZM64.8032 31.5128H66.0532L66.0532 31.5066L64.8032 31.5128ZM63.2766 51.3228C63.967 51.3228 64.5266 50.7631 64.5266 50.0728C64.5266 49.3824 63.967 48.8228 63.2766 48.8228V51.3228ZM56.7341 48.8228C56.0437 48.8228 55.4841 49.3824 55.4841 50.0728C55.4841 50.7631 56.0437 51.3228 56.7341 51.3228V48.8228ZM44.4123 32.45H51.6091V29.95H44.4123V32.45ZM51.6091 70.75H44.4123V73.25H51.6091V70.75ZM44.4123 70.75C40.4618 70.75 37.5866 70.7487 35.3358 70.5346C33.1037 70.3223 31.615 69.9095 30.4022 69.166L29.0956 71.2974C30.7672 72.3222 32.6838 72.7936 35.0991 73.0233C37.4958 73.2513 40.5102 73.25 44.4123 73.25V70.75ZM22.7714 51.6C22.7714 55.5039 22.7701 58.5196 22.998 60.9172C23.2276 63.3334 23.6988 65.2507 24.723 66.9229L26.8549 65.6171C26.1116 64.4036 25.699 62.914 25.4868 60.6807C25.2728 58.4288 25.2714 55.5523 25.2714 51.6H22.7714ZM30.4022 69.166C28.9565 68.2797 27.7409 67.0636 26.8549 65.6171L24.723 66.9229C25.8151 68.7057 27.3134 70.2048 29.0956 71.2974L30.4022 69.166ZM51.6091 73.25C55.5113 73.25 58.5257 73.2513 60.9223 73.0233C63.3376 72.7936 65.2543 72.3222 66.9259 71.2974L65.6192 69.166C64.4065 69.9095 62.9178 70.3223 60.6856 70.5346C58.4348 70.7487 55.5597 70.75 51.6091 70.75V73.25ZM69.1665 65.6171C68.2805 67.0636 67.0649 68.2797 65.6192 69.166L66.9259 71.2974C68.708 70.2048 70.2064 68.7057 71.2984 66.9229L69.1665 65.6171ZM65.6192 34.034C67.0649 34.9203 68.2805 36.1364 69.1665 37.5829L71.2984 36.2771C70.2064 34.4943 68.708 32.9952 66.9259 31.9026L65.6192 34.034ZM44.4123 29.95C40.5102 29.95 37.4958 29.9487 35.0991 30.1767C32.6838 30.4064 30.7672 30.8778 29.0956 31.9026L30.4022 34.034C31.615 33.2905 33.1037 32.8778 35.3358 32.6654C37.5866 32.4513 40.4618 32.45 44.4123 32.45V29.95ZM25.2714 51.6C25.2714 47.6477 25.2728 44.7712 25.4868 42.5193C25.699 40.286 26.1116 38.7964 26.8549 37.5829L24.723 36.2771C23.6988 37.9493 23.2276 39.8666 22.998 42.2828C22.7701 44.6804 22.7714 47.6961 22.7714 51.6H25.2714ZM29.0956 31.9026C27.3134 32.9952 25.8151 34.4943 24.723 36.2771L26.8549 37.5829C27.7409 36.1364 28.9565 34.9203 30.4022 34.034L29.0956 31.9026ZM43.3402 25.25H56.2193V22.75H43.3402V25.25ZM56.2193 25.25C58.2799 25.25 59.6943 25.2529 60.7564 25.4018C61.777 25.5449 62.2856 25.8009 62.6458 26.1766L64.4503 24.4464C63.5531 23.5106 62.4211 23.1108 61.1036 22.926C59.8276 22.7471 58.2063 22.75 56.2193 22.75V25.25ZM43.3402 22.75C39.3448 22.75 36.2435 22.7481 33.7922 23.0251C31.3142 23.3052 29.3518 23.8829 27.6906 25.1416L29.2006 27.1342C30.3607 26.255 31.8211 25.7638 34.0729 25.5093C36.3513 25.2519 39.2867 25.25 43.3402 25.25V22.75ZM25.2714 44.1495C25.2714 39.9253 25.273 36.8534 25.521 34.4664C25.7668 32.0999 26.2435 30.554 27.0969 29.3289L25.0455 27.8999C23.8491 29.6174 23.301 31.6415 23.0344 34.2081C22.7699 36.7543 22.7714 39.9787 22.7714 44.1495H25.2714ZM27.6906 25.1416C26.6737 25.9123 25.7814 26.8435 25.0455 27.8999L27.0969 29.3289C27.6849 28.4847 28.3952 27.7444 29.2006 27.1342L27.6906 25.1416ZM66.0532 31.5066C66.0452 29.878 66.0097 28.5151 65.8155 27.4005C65.6157 26.2541 65.2312 25.2608 64.4503 24.4464L62.6458 26.1766C62.9701 26.5149 63.2051 26.9831 63.3526 27.8296C63.5056 28.7079 63.5451 29.8693 63.5532 31.5189L66.0532 31.5066ZM22.7714 44.1495C22.7714 46.5105 22.7231 48.6282 22.7719 50.4337L25.271 50.3663C25.2233 48.6015 25.2714 46.5983 25.2714 44.1495H22.7714ZM70.8005 55.3682H56.7341V57.8682H70.8005V55.3682ZM48.9416 50.0728C48.9416 54.3775 52.4299 57.8682 56.7341 57.8682V55.3682C53.8116 55.3682 51.4416 52.9979 51.4416 50.0728H48.9416ZM51.4416 50.0728C51.4416 47.1476 53.8116 44.7773 56.7341 44.7773V42.2773C52.4299 42.2773 48.9416 45.768 48.9416 50.0728H51.4416ZM63.2766 48.8228H56.7341V51.3228H63.2766V48.8228ZM51.6091 32.45C54.9244 32.45 57.4874 32.4505 59.5678 32.579C61.6468 32.7073 63.1493 32.9595 64.3592 33.4192L65.2472 31.0822C63.6916 30.4912 61.898 30.2181 59.7218 30.0837C57.547 29.9495 54.8957 29.95 51.6091 29.95V32.45ZM64.3592 33.4192C64.8143 33.5921 65.2296 33.7951 65.6192 34.034L66.9259 31.9026C66.3966 31.5781 65.8401 31.3075 65.2472 31.0822L64.3592 33.4192ZM63.5532 31.5128V32.2507H66.0532V31.5128H63.5532ZM56.7341 44.7773H71.8666V42.2773H56.7341V44.7773ZM73.25 51.6C73.25 48.2949 73.2505 45.6318 73.1142 43.4494L70.6191 43.6052C70.7494 45.6922 70.75 48.2657 70.75 51.6H73.25ZM73.1142 43.4494C72.9279 40.4667 72.4799 38.206 71.2984 36.2771L69.1665 37.5829C70.0264 38.9867 70.4409 40.7537 70.6191 43.6052L73.1142 43.4494ZM70.75 51.6C70.75 53.4887 70.75 55.1369 70.7257 56.5975L73.2254 56.639C73.25 55.1535 73.25 53.4828 73.25 51.6H70.75ZM70.7257 56.5975C70.6479 61.2868 70.3095 63.751 69.1665 65.6171L71.2984 66.9229C72.8419 64.403 73.1484 61.2771 73.2254 56.639L70.7257 56.5975ZM70.8005 57.8682H71.9756V55.3682H70.8005V57.8682Z" fill="#DD4141"/>
</svg>
