<svg width="96" height="96" viewBox="0 0 96 96" fill="none" xmlns="http://www.w3.org/2000/svg">
<path d="M24 33C24 30.2044 24 28.8065 24.4567 27.7039C25.0657 26.2337 26.2337 25.0657 27.7039 24.4567C28.8065 24 30.2044 24 33 24C35.7956 24 37.1935 24 38.2961 24.4567C39.7663 25.0657 40.9343 26.2337 41.5433 27.7039C42 28.8065 42 30.2044 42 33C42 35.7956 42 37.1935 41.5433 38.2961C40.9343 39.7663 39.7663 40.9343 38.2961 41.5433C37.1935 42 35.7956 42 33 42C30.2044 42 28.8065 42 27.7039 41.5433C26.2337 40.9343 25.0657 39.7663 24.4567 38.2961C24 37.1935 24 35.7956 24 33Z" stroke="#DD4141" stroke-width="2.5"/>
<path d="M54 33C54 30.2044 54 28.8065 54.4567 27.7039C55.0657 26.2337 56.2337 25.0657 57.7039 24.4567C58.8065 24 60.2044 24 63 24C65.7956 24 67.1935 24 68.2961 24.4567C69.7663 25.0657 70.9343 26.2337 71.5433 27.7039C72 28.8065 72 30.2044 72 33C72 35.7956 72 37.1935 71.5433 38.2961C70.9343 39.7663 69.7663 40.9343 68.2961 41.5433C67.1935 42 65.7956 42 63 42C60.2044 42 58.8065 42 57.7039 41.5433C56.2337 40.9343 55.0657 39.7663 54.4567 38.2961C54 37.1935 54 35.7956 54 33Z" stroke="#DD4141" stroke-width="2.5"/>
<path d="M24 63C24 60.2044 24 58.8065 24.4567 57.7039C25.0657 56.2337 26.2337 55.0657 27.7039 54.4567C28.8065 54 30.2044 54 33 54C35.7956 54 37.1935 54 38.2961 54.4567C39.7663 55.0657 40.9343 56.2337 41.5433 57.7039C42 58.8065 42 60.2044 42 63C42 65.7956 42 67.1935 41.5433 68.2961C40.9343 69.7663 39.7663 70.9343 38.2961 71.5433C37.1935 72 35.7956 72 33 72C30.2044 72 28.8065 72 27.7039 71.5433C26.2337 70.9343 25.0657 69.7663 24.4567 68.2961C24 67.1935 24 65.7956 24 63Z" stroke="#DD4141" stroke-width="2.5"/>
<path d="M54 63C54 60.2044 54 58.8065 54.4567 57.7039C55.0657 56.2337 56.2337 55.0657 57.7039 54.4567C58.8065 54 60.2044 54 63 54C65.7956 54 67.1935 54 68.2961 54.4567C69.7663 55.0657 70.9343 56.2337 71.5433 57.7039C72 58.8065 72 60.2044 72 63C72 65.7956 72 67.1935 71.5433 68.2961C70.9343 69.7663 69.7663 70.9343 68.2961 71.5433C67.1935 72 65.7956 72 63 72C60.2044 72 58.8065 72 57.7039 71.5433C56.2337 70.9343 55.0657 69.7663 54.4567 68.2961C54 67.1935 54 65.7956 54 63Z" stroke="#DD4141" stroke-width="2.5"/>
</svg>
