<svg width="24" height="24" viewBox="0 0 24 24" fill="none" xmlns="http://www.w3.org/2000/svg">
<path d="M12.7935 8.09823C12.7787 8.08635 12.7642 8.07487 12.75 8.06379V17.25C12.75 17.6642 12.4142 18 12 18C11.5858 18 11.25 17.6642 11.25 17.25V8.06379C11.2358 8.07487 11.2213 8.08635 11.2065 8.09823C10.8839 8.35733 10.5003 8.74268 9.93054 9.31758L8.53269 10.728C8.24111 11.0222 7.76624 11.0243 7.47204 10.7327C7.17784 10.4411 7.17573 9.96624 7.46731 9.67204L8.89565 8.2309C9.42704 7.69472 9.87022 7.24753 10.2672 6.92869C10.6837 6.59427 11.1213 6.33989 11.6545 6.27193C11.8839 6.24269 12.1161 6.24269 12.3455 6.27193C12.8787 6.33989 13.3163 6.59427 13.7328 6.92869C14.1298 7.24753 14.5729 7.69469 15.1043 8.23085L16.5327 9.67204C16.8243 9.96624 16.8222 10.4411 16.528 10.7327C16.2338 11.0243 15.7589 11.0222 15.4673 10.728L14.0695 9.31758C13.4997 8.74268 13.1161 8.35733 12.7935 8.09823Z" fill="white"/>
</svg>
