<svg width="32" height="32" viewBox="0 0 32 32" fill="none" xmlns="http://www.w3.org/2000/svg">
<path d="M13.75 11.5C13.75 12.7426 14.7574 13.75 16 13.75V15.25C13.9289 15.25 12.25 13.5711 12.25 11.5H13.75ZM16 13.75C17.2426 13.75 18.25 12.7426 18.25 11.5H19.75C19.75 13.5711 18.0711 15.25 16 15.25V13.75ZM18.25 11.5C18.25 10.2574 17.2426 9.25 16 9.25V7.75C18.0711 7.75 19.75 9.42893 19.75 11.5H18.25ZM16 9.25C14.7574 9.25 13.75 10.2574 13.75 11.5H12.25C12.25 9.42893 13.9289 7.75 16 7.75V9.25ZM19 18.25H13V16.75H19V18.25ZM13 22.75H19V24.25H13V22.75ZM19 22.75C20.2426 22.75 21.25 21.7426 21.25 20.5H22.75C22.75 22.5711 21.0711 24.25 19 24.25V22.75ZM10.75 20.5C10.75 21.7426 11.7574 22.75 13 22.75V24.25C10.9289 24.25 9.25 22.5711 9.25 20.5H10.75ZM13 18.25C11.7574 18.25 10.75 19.2574 10.75 20.5H9.25C9.25 18.4289 10.9289 16.75 13 16.75V18.25ZM19 16.75C21.0711 16.75 22.75 18.4289 22.75 20.5H21.25C21.25 19.2574 20.2426 18.25 19 18.25V16.75Z" fill="#DD4141"/>
</svg>
