<svg width="32" height="32" viewBox="0 0 32 32" fill="none" xmlns="http://www.w3.org/2000/svg">
<path d="M11.25 11.5C11.25 12.7426 12.2574 13.75 13.5 13.75V15.25C11.4289 15.25 9.75 13.5711 9.75 11.5H11.25ZM13.5 13.75C14.7426 13.75 15.75 12.7426 15.75 11.5H17.25C17.25 13.5711 15.5711 15.25 13.5 15.25V13.75ZM15.75 11.5C15.75 10.2574 14.7426 9.25 13.5 9.25V7.75C15.5711 7.75 17.25 9.42893 17.25 11.5H15.75ZM13.5 9.25C12.2574 9.25 11.25 10.2574 11.25 11.5H9.75C9.75 9.42893 11.4289 7.75 13.5 7.75V9.25ZM16.5 18.25H10.5V16.75H16.5V18.25ZM10.5 22.75H16.5V24.25H10.5V22.75ZM16.5 22.75C17.7426 22.75 18.75 21.7426 18.75 20.5H20.25C20.25 22.5711 18.5711 24.25 16.5 24.25V22.75ZM8.25 20.5C8.25 21.7426 9.25736 22.75 10.5 22.75V24.25C8.42893 24.25 6.75 22.5711 6.75 20.5H8.25ZM10.5 18.25C9.25736 18.25 8.25 19.2574 8.25 20.5H6.75C6.75 18.4289 8.42893 16.75 10.5 16.75V18.25ZM16.5 16.75C18.5711 16.75 20.25 18.4289 20.25 20.5H18.75C18.75 19.2574 17.7426 18.25 16.5 18.25V16.75Z" fill="#DD4141"/>
<path d="M17.7479 14.1387C17.9056 13.8853 18.2015 13.75 18.5 13.75C19.7426 13.75 20.75 12.7426 20.75 11.5C20.75 10.2574 19.7426 9.25 18.5 9.25C18.2015 9.25 17.9056 9.11473 17.7479 8.86135C17.7409 8.85014 17.7339 8.83896 17.7268 8.82782C17.4642 8.41331 17.5973 7.8264 18.085 7.7727C18.2213 7.7577 18.3597 7.75 18.5 7.75C20.5711 7.75 22.25 9.42893 22.25 11.5C22.25 13.5711 20.5711 15.25 18.5 15.25C18.3597 15.25 18.2213 15.2423 18.085 15.2273C17.5973 15.1736 17.4642 14.5867 17.7268 14.1722C17.7339 14.161 17.7409 14.1499 17.7479 14.1387Z" fill="#DD4141"/>
<path d="M20.7917 22.0669C20.9052 21.8775 21.1056 21.75 21.3264 21.75H21.5C22.7426 21.75 23.75 20.7426 23.75 19.5C23.75 18.2574 22.7426 17.25 21.5 17.25H21.3264C21.1056 17.25 20.9052 17.1225 20.7917 16.9331C20.5146 16.4708 20.8153 15.75 21.3543 15.75H21.5C23.5711 15.75 25.25 17.4289 25.25 19.5C25.25 21.5711 23.5711 23.25 21.5 23.25H21.3543C20.8153 23.25 20.5146 22.5292 20.7917 22.0669Z" fill="#DD4141"/>
</svg>
