<svg width="32" height="32" viewBox="0 0 32 32" fill="none" xmlns="http://www.w3.org/2000/svg">
<path d="M6.75 11.5C6.75 12.7426 7.75736 13.75 9 13.75V15.25C6.92893 15.25 5.25 13.5711 5.25 11.5H6.75ZM9 13.75C10.2426 13.75 11.25 12.7426 11.25 11.5H12.75C12.75 13.5711 11.0711 15.25 9 15.25V13.75ZM11.25 11.5C11.25 10.2574 10.2426 9.25 9 9.25V7.75C11.0711 7.75 12.75 9.42893 12.75 11.5H11.25ZM9 9.25C7.75736 9.25 6.75 10.2574 6.75 11.5H5.25C5.25 9.42893 6.92893 7.75 9 7.75V9.25ZM12 18.25H6V16.75H12V18.25ZM6 22.75H12V24.25H6V22.75ZM12 22.75C13.2426 22.75 14.25 21.7426 14.25 20.5H15.75C15.75 22.5711 14.0711 24.25 12 24.25V22.75ZM3.75 20.5C3.75 21.7426 4.75736 22.75 6 22.75V24.25C3.92893 24.25 2.25 22.5711 2.25 20.5H3.75ZM6 18.25C4.75736 18.25 3.75 19.2574 3.75 20.5H2.25C2.25 18.4289 3.92893 16.75 6 16.75V18.25ZM12 16.75C14.0711 16.75 15.75 18.4289 15.75 20.5H14.25C14.25 19.2574 13.2426 18.25 12 18.25V16.75Z" fill="#DD4141"/>
<path d="M13.2479 14.1387C13.4056 13.8853 13.7015 13.75 14 13.75C15.2426 13.75 16.25 12.7426 16.25 11.5C16.25 10.2574 15.2426 9.25 14 9.25C13.7015 9.25 13.4056 9.11473 13.2479 8.86135C13.2409 8.85014 13.2339 8.83896 13.2268 8.82782C12.9642 8.41331 13.0973 7.8264 13.585 7.7727C13.7213 7.7577 13.8597 7.75 14 7.75C16.0711 7.75 17.75 9.42893 17.75 11.5C17.75 13.5711 16.0711 15.25 14 15.25C13.8597 15.25 13.7213 15.2423 13.585 15.2273C13.0973 15.1736 12.9642 14.5867 13.2268 14.1722C13.2339 14.161 13.2409 14.1499 13.2479 14.1387Z" fill="#DD4141"/>
<path d="M16.2917 22.0669C16.4052 21.8775 16.6056 21.75 16.8264 21.75H17C18.2426 21.75 19.25 20.7426 19.25 19.5C19.25 18.2574 18.2426 17.25 17 17.25H16.8264C16.6056 17.25 16.4052 17.1225 16.2917 16.9331C16.0146 16.4708 16.3153 15.75 16.8543 15.75H17C19.0711 15.75 20.75 17.4289 20.75 19.5C20.75 21.5711 19.0711 23.25 17 23.25H16.8543C16.3153 23.25 16.0146 22.5292 16.2917 22.0669Z" fill="#DD4141"/>
<path d="M18.8902 13.5204C19.0344 13.2915 19.305 13.1694 19.5779 13.1694C20.7142 13.1694 21.6353 12.2595 21.6353 11.1371C21.6353 10.0147 20.7142 9.10484 19.5779 9.10484C19.305 9.10484 19.0344 8.98266 18.8902 8.7538C18.8838 8.74368 18.8774 8.73358 18.8709 8.72351C18.6308 8.34912 18.7525 7.81901 19.1985 7.77051C19.3231 7.75696 19.4497 7.75 19.5779 7.75C21.4717 7.75 23.0069 9.26645 23.0069 11.1371C23.0069 13.0077 21.4717 14.5242 19.5779 14.5242C19.4497 14.5242 19.3231 14.5172 19.1985 14.5037C18.7525 14.4552 18.6308 13.9251 18.8709 13.5507C18.8774 13.5406 18.8838 13.5305 18.8902 13.5204Z" fill="#DD4141"/>
<path d="M21.6734 20.6814C21.7772 20.5103 21.9604 20.3952 22.1623 20.3952H22.3211C23.4573 20.3952 24.3784 19.4853 24.3784 18.3629C24.3784 17.2405 23.4573 16.3306 22.3211 16.3306H22.1623C21.9604 16.3306 21.7772 16.2155 21.6734 16.0444C21.4201 15.6269 21.695 14.9758 22.1879 14.9758H22.3211C24.2148 14.9758 25.75 16.4923 25.75 18.3629C25.75 20.2335 24.2148 21.75 22.3211 21.75H22.1879C21.695 21.75 21.4201 21.0989 21.6734 20.6814Z" fill="#DD4141"/>
<path d="M23.8702 12.6961C23.9938 12.4999 24.2257 12.3952 24.4597 12.3952C25.4336 12.3952 26.2231 11.6153 26.2231 10.6532C26.2231 9.69118 25.4336 8.91129 24.4597 8.91129C24.2257 8.91129 23.9938 8.80656 23.8702 8.6104C23.8647 8.60172 23.8592 8.59307 23.8537 8.58444C23.6478 8.26353 23.7521 7.80915 24.1344 7.76758C24.2412 7.75596 24.3497 7.75 24.4597 7.75C26.0829 7.75 27.3987 9.04982 27.3987 10.6532C27.3987 12.2566 26.0829 13.5565 24.4597 13.5565C24.3497 13.5565 24.2412 13.5505 24.1344 13.5389C23.7521 13.4973 23.6478 13.0429 23.8537 12.722C23.8592 12.7134 23.8647 12.7047 23.8702 12.6961Z" fill="#DD4141"/>
<path d="M26.2558 18.834C26.3448 18.6874 26.5018 18.5887 26.6749 18.5887H26.8109C27.7848 18.5887 28.5744 17.8088 28.5744 16.8468C28.5744 15.8847 27.7848 15.1048 26.8109 15.1048H26.6749C26.5018 15.1048 26.3448 15.0061 26.2558 14.8595C26.0386 14.5016 26.2743 13.9435 26.6967 13.9435H26.8109C28.4341 13.9435 29.75 15.2434 29.75 16.8468C29.75 18.4502 28.4341 19.75 26.8109 19.75H26.6967C26.2743 19.75 26.0386 19.1919 26.2558 18.834Z" fill="#DD4141"/>
</svg>
