<svg width="32" height="32" viewBox="0 0 32 32" fill="none" xmlns="http://www.w3.org/2000/svg">
<path d="M7.02486 11.1046L7.69218 11.4469L7.02486 11.1046ZM7.2728 10.6752L7.90293 11.0819L7.2728 10.6752ZM11.2368 24.2501L10.8618 24.8996L11.2368 24.2501ZM7.2728 21.325L7.90293 20.9182L7.2728 21.325ZM7.02486 20.8955L7.69218 20.5532L7.02486 20.8955ZM20.7631 24.2501L21.1381 24.8996L20.7631 24.2501ZM16.2478 26.2204L16.285 26.9695L16.2478 26.2204ZM15.752 26.2204L15.7148 26.9695L15.752 26.2204ZM24.975 20.8955L24.3076 20.5532L24.975 20.8955ZM24.727 21.325L24.0969 20.9182L24.727 21.325ZM24.727 10.6752L24.0969 11.0819L24.727 10.6752ZM24.975 11.1046L24.3076 11.4469L24.975 11.1046ZM16.2478 5.77971L16.285 5.03063L16.2478 5.77971ZM15.752 5.77971L15.7148 5.03063L15.752 5.77971ZM22.8359 22.8628L22.1168 23.0757L22.1226 23.0953L22.1294 23.1145L22.8359 22.8628ZM9.15685 22.8869L8.43636 22.6786L8.42666 22.7121L8.42012 22.7464L9.15685 22.8869ZM9.13528 23L8.7297 23.6309L9.13528 23ZM19.2499 13.0001C19.2499 14.795 17.7948 16.2501 15.9999 16.2501V17.7501C18.6233 17.7501 20.7499 15.6234 20.7499 13.0001H19.2499ZM15.9999 16.2501C14.205 16.2501 12.7499 14.795 12.7499 13.0001H11.2499C11.2499 15.6234 13.3766 17.7501 15.9999 17.7501V16.2501ZM12.7499 13.0001C12.7499 11.2051 14.205 9.75006 15.9999 9.75006V8.25006C13.3766 8.25006 11.2499 10.3767 11.2499 13.0001H12.7499ZM15.9999 9.75006C17.7948 9.75006 19.2499 11.2051 19.2499 13.0001H20.7499C20.7499 10.3767 18.6233 8.25006 15.9999 8.25006V9.75006ZM7.22363 16.0001C7.22363 14.7133 7.22432 13.7969 7.28956 13.0668C7.35352 12.351 7.4761 11.8682 7.69218 11.4469L6.35755 10.7623C6.0224 11.4156 5.86936 12.1068 5.79551 12.9333C5.72294 13.7455 5.72363 14.7396 5.72363 16.0001H7.22363ZM10.8618 7.10054C9.77015 7.73078 8.90888 8.22724 8.24182 8.69617C7.56301 9.17335 7.04089 9.65151 6.64268 10.2684L7.90293 11.0819C8.15967 10.6842 8.51653 10.3366 9.10446 9.9233C9.70414 9.50174 10.4974 9.04297 11.6118 8.39958L10.8618 7.10054ZM7.69218 11.4469C7.75635 11.3218 7.82668 11.2 7.90293 11.0819L6.64268 10.2684C6.53952 10.4282 6.44436 10.593 6.35755 10.7623L7.69218 11.4469ZM5.72363 16.0001C5.72363 17.2606 5.72294 18.2547 5.79551 19.0668C5.86936 19.8933 6.0224 20.5845 6.35755 21.2378L7.69218 20.5532C7.4761 20.132 7.35352 19.6491 7.28956 18.9333C7.22432 18.2032 7.22363 17.2868 7.22363 16.0001H5.72363ZM7.90293 20.9182C7.82668 20.8001 7.75635 20.6783 7.69218 20.5532L6.35755 21.2378C6.44436 21.4071 6.53952 21.5719 6.64268 21.7317L7.90293 20.9182ZM20.3881 23.6005C19.2737 24.2439 18.4797 24.7015 17.8148 25.0101C17.1629 25.3126 16.6835 25.4479 16.2107 25.4713L16.285 26.9695C17.0184 26.9331 17.6936 26.72 18.4462 26.3707C19.1859 26.0275 20.0464 25.5298 21.1381 24.8996L20.3881 23.6005ZM10.8618 24.8996C11.9534 25.5298 12.814 26.0275 13.5536 26.3707C14.3063 26.72 14.9814 26.9331 15.7148 26.9695L15.7892 25.4713C15.3163 25.4479 14.8369 25.3126 14.185 25.0101C13.5201 24.7015 12.7262 24.2439 11.6118 23.6005L10.8618 24.8996ZM16.2107 25.4713C16.0702 25.4783 15.9296 25.4783 15.7892 25.4713L15.7148 26.9695C15.9048 26.9789 16.0951 26.9789 16.285 26.9695L16.2107 25.4713ZM24.7762 16.0001C24.7762 17.2868 24.7755 18.2032 24.7103 18.9333C24.6463 19.6491 24.5237 20.132 24.3076 20.5532L25.6423 21.2378C25.9774 20.5845 26.1305 19.8933 26.2043 19.0668C26.2769 18.2547 26.2762 17.2606 26.2762 16.0001H24.7762ZM24.3076 20.5532C24.2435 20.6783 24.1731 20.8001 24.0969 20.9182L25.3571 21.7317C25.4603 21.5719 25.5555 21.4071 25.6423 21.2378L24.3076 20.5532ZM20.3881 8.39958C21.5024 9.04297 22.2957 9.50174 22.8954 9.9233C23.4833 10.3366 23.8402 10.6842 24.0969 11.0819L25.3571 10.2684C24.9589 9.65151 24.4368 9.17335 23.758 8.69617C23.0909 8.22724 22.2297 7.73078 21.1381 7.10054L20.3881 8.39958ZM26.2762 16.0001C26.2762 14.7396 26.2769 13.7455 26.2043 12.9333C26.1305 12.1068 25.9774 11.4156 25.6423 10.7623L24.3076 11.4469C24.5237 11.8682 24.6463 12.351 24.7103 13.0668C24.7755 13.7969 24.7762 14.7133 24.7762 16.0001H26.2762ZM24.0969 11.0819C24.1731 11.2 24.2435 11.3219 24.3076 11.4469L25.6423 10.7623C25.5555 10.593 25.4603 10.4282 25.3571 10.2684L24.0969 11.0819ZM21.1381 7.10054C20.0464 6.47029 19.1859 5.97264 18.4462 5.62941C17.6936 5.28013 17.0184 5.06704 16.285 5.03063L16.2107 6.52879C16.6835 6.55226 17.1629 6.68753 17.8148 6.99004C18.4797 7.2986 19.2737 7.75618 20.3881 8.39958L21.1381 7.10054ZM11.6118 8.39958C12.7262 7.75618 13.5201 7.2986 14.185 6.99004C14.8369 6.68753 15.3163 6.55226 15.7892 6.52879L15.7148 5.03063C14.9814 5.06704 14.3063 5.28013 13.5536 5.62941C12.814 5.97264 11.9534 6.47029 10.8618 7.10054L11.6118 8.39958ZM16.285 5.03063C16.0951 5.0212 15.9048 5.0212 15.7148 5.03063L15.7892 6.52879C15.9296 6.52182 16.0702 6.52182 16.2107 6.52879L16.285 5.03063ZM12.9999 20.7501H18.9999V19.2501H12.9999V20.7501ZM18.9999 20.7501C20.4727 20.7501 21.7186 21.7304 22.1168 23.0757L23.5551 22.65C22.9735 20.685 21.1552 19.2501 18.9999 19.2501V20.7501ZM21.1381 24.8996C21.9935 24.4057 22.7046 23.9954 23.2873 23.6198L22.4747 22.359C21.9296 22.7103 21.2547 23.1002 20.3881 23.6005L21.1381 24.8996ZM23.2873 23.6198C24.2005 23.0313 24.8719 22.4835 25.3571 21.7317L24.0969 20.9182C23.7836 21.4036 23.3232 21.8122 22.4747 22.359L23.2873 23.6198ZM22.1294 23.1145L22.1745 23.241L23.5875 22.7378L23.5425 22.6112L22.1294 23.1145ZM12.9999 19.2501C10.8342 19.2501 9.00879 20.6988 8.43636 22.6786L9.87733 23.0952C10.2692 21.7399 11.5199 20.7501 12.9999 20.7501V19.2501ZM11.6118 23.6005C10.7537 23.1051 10.0834 22.7179 9.54085 22.3691L8.7297 23.6309C9.30901 24.0033 10.0145 24.4104 10.8618 24.8996L11.6118 23.6005ZM9.54085 22.3691C8.68236 21.8172 8.21826 21.4067 7.90293 20.9182L6.64268 21.7317C7.13094 22.4881 7.80768 23.0381 8.7297 23.6309L9.54085 22.3691ZM8.42012 22.7464L8.39855 22.8595L9.872 23.1405L9.89357 23.0274L8.42012 22.7464Z" fill="#DD4141"/>
</svg>
