<svg width="32" height="32" viewBox="0 0 32 32" fill="none" xmlns="http://www.w3.org/2000/svg">
<path d="M8.75 11.5C8.75 12.7426 9.75736 13.75 11 13.75V15.25C8.92893 15.25 7.25 13.5711 7.25 11.5H8.75ZM11 13.75C12.2426 13.75 13.25 12.7426 13.25 11.5H14.75C14.75 13.5711 13.0711 15.25 11 15.25V13.75ZM13.25 11.5C13.25 10.2574 12.2426 9.25 11 9.25V7.75C13.0711 7.75 14.75 9.42893 14.75 11.5H13.25ZM11 9.25C9.75736 9.25 8.75 10.2574 8.75 11.5H7.25C7.25 9.42893 8.92893 7.75 11 7.75V9.25ZM14 18.25H8V16.75H14V18.25ZM8 22.75H14V24.25H8V22.75ZM14 22.75C15.2426 22.75 16.25 21.7426 16.25 20.5H17.75C17.75 22.5711 16.0711 24.25 14 24.25V22.75ZM5.75 20.5C5.75 21.7426 6.75736 22.75 8 22.75V24.25C5.92893 24.25 4.25 22.5711 4.25 20.5H5.75ZM8 18.25C6.75736 18.25 5.75 19.2574 5.75 20.5H4.25C4.25 18.4289 5.92893 16.75 8 16.75V18.25ZM14 16.75C16.0711 16.75 17.75 18.4289 17.75 20.5H16.25C16.25 19.2574 15.2426 18.25 14 18.25V16.75Z" fill="#DD4141"/>
<path d="M15.2479 14.1387C15.4056 13.8853 15.7015 13.75 16 13.75C17.2426 13.75 18.25 12.7426 18.25 11.5C18.25 10.2574 17.2426 9.25 16 9.25C15.7015 9.25 15.4056 9.11473 15.2479 8.86135C15.2409 8.85014 15.2339 8.83896 15.2268 8.82782C14.9642 8.41331 15.0973 7.8264 15.585 7.7727C15.7213 7.7577 15.8597 7.75 16 7.75C18.0711 7.75 19.75 9.42893 19.75 11.5C19.75 13.5711 18.0711 15.25 16 15.25C15.8597 15.25 15.7213 15.2423 15.585 15.2273C15.0973 15.1736 14.9642 14.5867 15.2268 14.1722C15.2339 14.161 15.2409 14.1499 15.2479 14.1387Z" fill="#DD4141"/>
<path d="M18.2917 22.0669C18.4052 21.8775 18.6056 21.75 18.8264 21.75H19C20.2426 21.75 21.25 20.7426 21.25 19.5C21.25 18.2574 20.2426 17.25 19 17.25H18.8264C18.6056 17.25 18.4052 17.1225 18.2917 16.9331C18.0146 16.4708 18.3153 15.75 18.8543 15.75H19C21.0711 15.75 22.75 17.4289 22.75 19.5C22.75 21.5711 21.0711 23.25 19 23.25H18.8543C18.3153 23.25 18.0146 22.5292 18.2917 22.0669Z" fill="#DD4141"/>
<path d="M20.8902 13.5204C21.0344 13.2915 21.305 13.1694 21.5779 13.1694C22.7142 13.1694 23.6353 12.2595 23.6353 11.1371C23.6353 10.0147 22.7142 9.10484 21.5779 9.10484C21.305 9.10484 21.0344 8.98266 20.8902 8.7538C20.8838 8.74368 20.8774 8.73358 20.8709 8.72351C20.6308 8.34912 20.7525 7.81901 21.1985 7.77051C21.3231 7.75696 21.4497 7.75 21.5779 7.75C23.4717 7.75 25.0069 9.26645 25.0069 11.1371C25.0069 13.0077 23.4717 14.5242 21.5779 14.5242C21.4497 14.5242 21.3231 14.5172 21.1985 14.5037C20.7525 14.4552 20.6308 13.9251 20.8709 13.5507C20.8774 13.5406 20.8838 13.5305 20.8902 13.5204Z" fill="#DD4141"/>
<path d="M23.6734 20.6814C23.7772 20.5103 23.9604 20.3952 24.1623 20.3952H24.3211C25.4573 20.3952 26.3784 19.4853 26.3784 18.3629C26.3784 17.2405 25.4573 16.3306 24.3211 16.3306H24.1623C23.9604 16.3306 23.7772 16.2155 23.6734 16.0444C23.4201 15.6269 23.695 14.9758 24.1879 14.9758H24.3211C26.2148 14.9758 27.75 16.4923 27.75 18.3629C27.75 20.2335 26.2148 21.75 24.3211 21.75H24.1879C23.695 21.75 23.4201 21.0989 23.6734 20.6814Z" fill="#DD4141"/>
</svg>
