<svg width="128" height="128" viewBox="0 0 128 128" fill="none" xmlns="http://www.w3.org/2000/svg">
<path d="M116.928 21.6951C116.928 27.2719 112.407 31.7928 106.83 31.7928C101.253 31.7928 96.7324 27.2719 96.7324 21.6951C96.7324 16.1182 101.253 11.5973 106.83 11.5973C112.407 11.5973 116.928 16.1182 116.928 21.6951Z" fill="white"/>
<path d="M11.6605 16.402C11.5994 16.5076 11.455 16.9132 11.7328 17.3409C12.9945 19.1897 18.5224 23.9496 25.2782 29.0165C33.3849 35.132 40.7804 41.2476 41.776 42.6698C42.7715 44.092 44.1937 45.2298 45.0471 45.2298C45.7582 45.2298 50.0249 42.2431 54.7182 38.6876C60.976 33.852 64.1049 32.2876 67.0916 32.7142C70.9316 33.1409 70.7893 33.2831 63.2516 39.1142C56.5671 44.2342 54.576 46.9365 50.4515 56.4654C46.6115 65.2831 43.1982 70.1186 34.6649 79.0786C23.9982 90.3142 23.5715 90.5986 19.0204 89.1764C15.7271 88.1473 14.1727 86.8113 11.8411 88.9913C10.0697 91.0806 11.2204 93.3818 12.1938 94.1542C13.3315 95.292 69.4628 110.312 90.9384 116.286C93.2523 116.815 94.9713 115.475 95.5272 113.824C96.1939 111.735 94.9939 109.552 92.923 109.005C76.8519 104.596 34.096 93.3009 33.9537 93.0164C33.8115 92.8742 40.6382 85.9053 49.1715 77.372L64.6738 62.1542L70.3627 65.4254C76.7627 68.9809 76.9049 69.4075 78.3271 80.3587L79.3227 87.8964H62.5404C53.4382 87.8964 46.1849 88.1809 46.6115 88.6075C47.0382 89.0342 53.296 91.0253 60.4071 92.8742C71.5004 95.8609 76.7627 96.4298 93.8293 96.4298C104.893 96.4298 109.661 96.4298 111.775 96.4298C111.775 96.4298 117.083 96.4298 117.083 92.1631C117.083 87.8964 111.775 87.8964 111.775 87.8964H87.5716V76.5187C87.5716 65.5675 87.4293 64.9987 82.5938 59.5942L77.4738 54.0476L86.0071 47.3631C94.9671 40.3942 96.9582 36.412 94.6827 30.4387C92.8338 25.3187 88.1404 23.8964 73.4916 23.8964H60.976L52.5849 30.2965C48.0337 33.7098 43.6249 36.6965 42.9137 36.6965C42.2026 36.6965 35.8027 32.2876 28.6915 27.0253C17.0929 18.3264 13.8645 15.8861 12.527 15.8611C12.2105 15.8465 11.8328 16.0354 11.6605 16.402Z" fill="white"/>
</svg>
