<svg width="128" height="128" viewBox="0 0 128 128" fill="none" xmlns="http://www.w3.org/2000/svg">
<path d="M120.042 26.6401C120.042 32.5782 115.228 37.3921 109.29 37.3921C103.351 37.3921 98.5376 32.5782 98.5376 26.6401C98.5376 20.7019 103.351 15.8881 109.29 15.8881C115.228 15.8881 120.042 20.7019 120.042 26.6401Z" fill="white"/>
<path d="M35.6182 35.0595C32.3238 39.0702 36.3344 40.6458 52.5203 42.2214L67.8467 43.6538L61.1145 48.3806C53.3797 53.6804 22.2972 93.0707 22.0107 97.9408C21.8674 100.089 19.8621 101.665 14.7056 103.527C10.8382 104.959 6.68427 107.108 5.53837 108.254C3.81952 109.973 3.81952 110.546 5.68161 112.408C7.68693 114.413 13.13 112.694 60.5416 95.076C91.9106 83.3306 114.972 74.0201 117.407 71.8716C123.709 66.715 125.142 63.1341 122.42 60.4126C120.272 58.264 119.699 58.5505 114.829 63.2773C110.388 67.4312 102.94 70.7257 72.287 82.1847C51.9473 89.7763 35.0453 95.7922 34.7588 95.649C33.6129 94.3599 62.4036 72.4445 77.73 62.9908C96.9239 50.9589 100.218 47.2347 97.3536 40.5026C94.6321 33.7704 90.9079 32.911 62.9766 32.911C41.6342 32.911 37.0506 33.3407 35.6182 35.0595Z" fill="white"/>
</svg>
