<svg width="128" height="128" viewBox="0 0 128 128" fill="none" xmlns="http://www.w3.org/2000/svg">
<path d="M72.9545 22.0442C72.9545 27.5425 68.4972 31.9997 62.9989 31.9997C57.5006 31.9997 53.0434 27.5425 53.0434 22.0442C53.0434 16.5459 57.5006 12.0886 62.9989 12.0886C68.4972 12.0886 72.9545 16.5459 72.9545 22.0442Z" fill="white"/>
<path d="M95.1472 20.7643C91.1649 24.7465 84.0538 30.2931 79.3605 33.1376C65.8494 41.2443 41.956 57.3154 40.9605 59.1643C40.3916 60.0176 40.9605 61.7243 42.0983 62.862C44.0894 64.8531 45.5116 64.2843 56.7472 57.742L69.4049 50.4887L71.8227 55.182C73.1027 57.5998 74.2405 60.1598 74.3827 60.5865C74.3827 61.1554 71.5383 62.2931 67.9827 63.2887C63.716 64.4265 59.876 66.9865 56.4627 70.8265L51.2005 76.5154L54.6138 79.0754C58.0272 81.6354 58.0272 81.6354 60.8716 78.222C62.8627 75.8043 65.7072 74.5243 71.2538 73.8131C75.236 73.3865 78.6494 73.2443 78.6494 73.5287C78.6494 73.9554 77.6538 77.0843 76.516 80.3554C73.3872 89.3154 73.8138 93.8665 77.9383 96.5687C82.6316 99.6976 82.916 99.5554 82.916 94.4354C82.916 91.3065 85.1916 86.8976 90.7383 79.3598C95.0049 73.3865 98.5605 67.1287 98.5605 65.2798C98.5605 63.4309 96.1427 57.1731 93.2983 51.342L88.036 40.6754L98.276 30.0087C103.965 24.3198 108.516 18.9154 108.516 18.2043C108.516 16.4976 105.529 13.5109 103.823 13.5109C103.112 13.5109 99.2716 16.782 95.1472 20.7643Z" fill="white"/>
<path d="M43.094 101.546L63.7162 115.911L90.9244 115.911C90.2133 115.2 75.094 104.106 59.5918 92.5865C46.9563 83.3971 36.8511 76.5078 31.5842 73.4951C31.5842 73.4951 25.9265 69.9016 21.1495 75.5943C17.1467 81.4478 21.4857 85.7586 22.4819 86.5668C26.0686 89.4768 34.1893 95.4245 43.094 101.546Z" fill="white"/>
</svg>
