<svg width="32" height="32" viewBox="0 0 32 32" fill="none" xmlns="http://www.w3.org/2000/svg">
<path d="M16.7495 21.5697C16.7495 21.1554 16.4137 20.8197 15.9995 20.8197C15.5853 20.8197 15.2495 21.1554 15.2495 21.5697V23.5697C15.2495 23.9839 15.5853 24.3197 15.9995 24.3197C16.4137 24.3197 16.7495 23.9839 16.7495 23.5697V21.5697Z" fill="#DD4141"/>
<path fill-rule="evenodd" clip-rule="evenodd" d="M16.2103 5.00387C16.0698 4.99871 15.9292 4.99871 15.7887 5.00387C14.8613 5.03789 14.0263 5.35323 13.1107 5.87818C12.2184 6.38974 11.1912 7.13608 9.88778 8.08305L9.81693 8.13453C8.51353 9.08149 7.48627 9.82783 6.72402 10.5183C5.94183 11.2269 5.38386 11.9237 5.06493 12.7952C5.01662 12.9272 4.97316 13.0609 4.93465 13.1961C4.68043 14.0886 4.7223 14.9803 4.93861 16.0133C5.14941 17.02 5.54179 18.2276 6.03964 19.7598L6.06671 19.8431C6.56455 21.3753 6.95692 22.5829 7.37809 23.5212C7.81028 24.4841 8.30051 25.2301 9.03078 25.8027C9.1414 25.8894 9.25517 25.9721 9.37185 26.0505C10.1066 26.5442 10.9238 26.7815 11.9093 26.9009C12.9577 27.0279 14.2684 27.0279 15.9493 27.0279H16.0497C17.7307 27.0279 19.0414 27.0279 20.0897 26.9009C21.0752 26.7815 21.8925 26.5442 22.6272 26.0505C22.7439 25.9721 22.8576 25.8894 22.9683 25.8027C23.6985 25.2301 24.1888 24.4841 24.6209 23.5212C25.0421 22.5829 25.4345 21.3753 25.9323 19.843L25.9594 19.7597C26.4572 18.2276 26.8496 17.0199 27.0604 16.0133C27.2767 14.9803 27.3186 14.0886 27.0644 13.1961C27.0259 13.0609 26.9824 12.9272 26.9341 12.7952C26.6152 11.9237 26.0572 11.2269 25.275 10.5183C24.5128 9.82782 23.4855 9.08149 22.1821 8.13452L22.1112 8.08303C20.8079 7.13607 19.7806 6.38973 18.8884 5.87818C17.9728 5.35323 17.1377 5.03789 16.2103 5.00387ZM15.8437 6.50286C15.9475 6.49905 16.0515 6.49905 16.1553 6.50286C16.7508 6.5247 17.3438 6.72167 18.1423 7.17948C18.9561 7.64603 19.9184 8.34396 21.265 9.32232C22.6116 10.3007 23.5728 11.0003 24.268 11.63C24.9501 12.248 25.3207 12.7511 25.5255 13.3107C25.5612 13.4082 25.5933 13.5071 25.6218 13.607C25.785 14.1801 25.7809 14.805 25.5923 15.7058C25.4 16.624 25.0336 17.7549 24.5193 19.3379C24.0049 20.9209 23.6366 22.0512 23.2525 22.907C22.8756 23.7467 22.5116 24.2546 22.0427 24.6223C21.9609 24.6864 21.8768 24.7475 21.7906 24.8055C21.495 25.004 21.1635 25.1515 20.7495 25.2591V21.5697C20.7495 18.9463 18.6229 16.8197 15.9995 16.8197C13.3762 16.8197 11.2495 18.9463 11.2495 21.5697V25.2591C10.8356 25.1515 10.504 25.004 10.2084 24.8055C10.1222 24.7475 10.0381 24.6864 9.95635 24.6223C9.48747 24.2546 9.12347 23.7467 8.74656 22.907C8.36244 22.0512 7.99411 20.9209 7.47976 19.3379C6.96541 17.7549 6.59902 16.624 6.40677 15.7058C6.21812 14.805 6.21405 14.1801 6.37727 13.607C6.40574 13.5071 6.43786 13.4082 6.47357 13.3107C6.67834 12.7511 7.04893 12.248 7.73108 11.63C8.42627 11.0003 9.38742 10.3007 10.734 9.32232C12.0806 8.34396 13.043 7.64603 13.8567 7.17948C14.6552 6.72167 15.2483 6.5247 15.8437 6.50286ZM15.9995 18.3197C17.7944 18.3197 19.2495 19.7747 19.2495 21.5697V25.4717C18.4061 25.5271 17.3628 25.5279 15.9995 25.5279C14.6362 25.5279 13.5929 25.5271 12.7495 25.4718V21.5697C12.7495 19.7747 14.2046 18.3197 15.9995 18.3197Z" fill="#DD4141"/>
</svg>
