<svg width="32" height="32" viewBox="0 0 32 32" fill="none" xmlns="http://www.w3.org/2000/svg">
<path d="M16.75 21.5697C16.75 21.1554 16.4142 20.8197 16 20.8197C15.5858 20.8197 15.25 21.1554 15.25 21.5697V23.5697C15.25 23.9839 15.5858 24.3197 16 24.3197C16.4142 24.3197 16.75 23.9839 16.75 23.5697V21.5697Z" fill="#DD4141"/>
<path fill-rule="evenodd" clip-rule="evenodd" d="M16.2108 5.00387C16.0703 4.99871 15.9297 4.99871 15.7892 5.00387C14.8618 5.03789 14.0268 5.35323 13.1112 5.87818C12.2189 6.38974 11.1916 7.13608 9.88826 8.08305L9.81741 8.13453C8.51402 9.08149 7.48676 9.82783 6.72451 10.5183C5.94232 11.2269 5.38435 11.9237 5.06542 12.7952C5.01711 12.9272 4.97365 13.0609 4.93514 13.1961C4.68092 14.0886 4.72279 14.9803 4.9391 16.0133C5.14989 17.02 5.54227 18.2276 6.04013 19.7598L6.0672 19.8431C6.56503 21.3753 6.95741 22.5829 7.37858 23.5212C7.81077 24.4841 8.301 25.2301 9.03127 25.8027C9.14189 25.8894 9.25566 25.9721 9.37234 26.0505C10.107 26.5442 10.9243 26.7815 11.9098 26.9009C12.9581 27.0279 14.2689 27.0279 15.9498 27.0279H16.0502C17.7312 27.0279 19.0419 27.0279 20.0902 26.9009C21.0757 26.7815 21.893 26.5442 22.6277 26.0505C22.7444 25.9721 22.8581 25.8894 22.9687 25.8027C23.699 25.2301 24.1892 24.4841 24.6214 23.5212C25.0426 22.5829 25.435 21.3753 25.9328 19.843L25.9599 19.7597C26.4577 18.2276 26.8501 17.0199 27.0609 16.0133C27.2772 14.9803 27.3191 14.0886 27.0649 13.1961C27.0264 13.0609 26.9829 12.9272 26.9346 12.7952C26.6157 11.9237 26.0577 11.2269 25.2755 10.5183C24.5132 9.82782 23.486 9.08149 22.1826 8.13452L22.1117 8.08303C20.8084 7.13607 19.7811 6.38973 18.8889 5.87818C17.9733 5.35323 17.1382 5.03789 16.2108 5.00387ZM15.8442 6.50286C15.948 6.49905 16.052 6.49905 16.1558 6.50286C16.7512 6.5247 17.3443 6.72167 18.1428 7.17948C18.9566 7.64603 19.9189 8.34396 21.2655 9.32232C22.6121 10.3007 23.5733 11.0003 24.2684 11.63C24.9506 12.248 25.3212 12.7511 25.526 13.3107C25.5617 13.4082 25.5938 13.5071 25.6222 13.607C25.7855 14.1801 25.7814 14.805 25.5928 15.7058C25.4005 16.624 25.0341 17.7549 24.5198 19.3379C24.0054 20.9209 23.6371 22.0512 23.253 22.907C22.8761 23.7467 22.5121 24.2546 22.0432 24.6223C21.9614 24.6864 21.8773 24.7475 21.7911 24.8055C21.4955 25.004 21.164 25.1515 20.75 25.2591V21.5697C20.75 18.9463 18.6234 16.8197 16 16.8197C13.3767 16.8197 11.25 18.9463 11.25 21.5697V25.2591C10.836 25.1515 10.5045 25.004 10.2089 24.8055C10.1227 24.7475 10.0386 24.6864 9.95684 24.6223C9.48796 24.2546 9.12396 23.7467 8.74705 22.907C8.36293 22.0512 7.9946 20.9209 7.48025 19.3379C6.9659 17.7549 6.59951 16.624 6.40725 15.7058C6.21861 14.805 6.21454 14.1801 6.37776 13.607C6.40623 13.5071 6.43834 13.4082 6.47405 13.3107C6.67883 12.7511 7.04942 12.248 7.73157 11.63C8.42676 11.0003 9.38791 10.3007 10.7345 9.32232C12.0811 8.34396 13.0435 7.64603 13.8572 7.17948C14.6557 6.72167 15.2488 6.5247 15.8442 6.50286ZM16 18.3197C17.7949 18.3197 19.25 19.7747 19.25 21.5697V25.4717C18.4066 25.5271 17.3633 25.5279 16 25.5279C14.6367 25.5279 13.5934 25.5271 12.75 25.4718V21.5697C12.75 19.7747 14.2051 18.3197 16 18.3197Z" fill="#DD4141"/>
<path d="M14.0007 11.75C13.5865 11.75 13.2507 12.0858 13.2507 12.5C13.2507 12.9142 13.5865 13.25 14.0007 13.25H18.0007C18.4149 13.25 18.7507 12.9142 18.7507 12.5C18.7507 12.0858 18.4149 11.75 18.0007 11.75H14.0007Z" fill="#DD4141"/>
</svg>
